<?xml version="1.0" standalone="no"?>
<!DOCTYPE svg PUBLIC "-//W3C//DTD SVG 20010904//EN"
 "http://www.w3.org/TR/2001/REC-SVG-20010904/DTD/svg10.dtd">
<svg version="1.0" xmlns="http://www.w3.org/2000/svg"
 width="260.000000pt" height="260.000000pt" viewBox="0 0 260.000000 260.000000"
 preserveAspectRatio="xMidYMid meet">
<metadata>
Created by potrace 1.11, written by Peter Selinger 2001-2013
</metadata>
<g transform="translate(0.000000,260.000000) scale(0.100000,-0.100000)"
fill="#000000" stroke="none">
<path d="M1393 2575 c-32 -22 -42 -68 -39 -179 3 -97 3 -100 34 -127 32 -29
56 -31 98 -8 34 18 41 47 40 167 -1 112 -2 114 -29 138 -32 27 -73 31 -104 9z"/>
<path d="M718 2290 c-57 -45 -40 -96 65 -197 75 -73 92 -81 143 -67 30 8 59
64 50 97 -3 15 -42 63 -87 107 -68 68 -85 80 -113 80 -18 0 -45 -9 -58 -20z"/>
<path d="M1996 2233 c-43 -43 -82 -88 -87 -101 -20 -52 25 -112 84 -112 24 0
46 16 115 84 76 74 85 87 85 120 0 50 -34 86 -83 86 -32 0 -46 -9 -114 -77z"/>
<path d="M1378 2068 c-113 -13 -213 -62 -300 -145 l-46 -45 -68 11 c-75 14
-198 13 -259 -1 -22 -6 -47 -11 -56 -13 -38 -8 -148 -60 -198 -95 -112 -76
-203 -190 -254 -320 -36 -91 -46 -159 -43 -275 6 -172 70 -324 188 -445 48
-49 137 -120 150 -120 2 0 3 47 3 104 l-1 103 -43 49 c-81 92 -122 197 -126
324 -12 374 382 639 720 485 133 -61 240 -181 285 -318 12 -37 12 -38 36 -22
57 37 190 49 259 24 109 -40 163 -86 207 -177 29 -59 33 -76 33 -152 0 -71 -4
-94 -26 -140 -24 -52 -109 -150 -130 -150 -5 0 -9 -43 -9 -95 0 -69 3 -95 13
-95 28 0 126 67 184 126 173 176 194 448 51 653 -24 33 -24 33 -7 100 53 210
-36 431 -224 552 -100 65 -216 91 -339 77z m214 -206 c73 -36 127 -90 159
-160 19 -41 35 -112 33 -142 -1 -8 -2 -27 -3 -43 l-1 -27 -38 19 c-55 28 -166
49 -239 45 l-62 -4 -33 47 c-47 69 -96 121 -156 165 l-53 40 23 20 c59 52 142
78 233 75 57 -2 84 -9 137 -35z"/>
<path d="M2180 1634 c-64 -27 -66 -124 -3 -153 31 -14 215 -14 246 0 54 25 63
107 15 142 -23 17 -44 20 -128 21 -59 1 -113 -3 -130 -10z"/>
<path d="M695 1015 c-14 -13 -25 -34 -26 -47 -5 -125 -3 -700 3 -724 10 -40
27 -53 72 -61 30 -5 40 -1 65 24 l30 30 -1 373 0 374 -28 28 c-37 36 -81 37
-115 3z"/>
<path d="M1383 1016 l-28 -24 0 -372 c-1 -336 1 -375 17 -400 35 -59 131 -45
149 21 3 14 6 189 5 388 l-1 363 -28 24 c-36 31 -78 31 -114 0z"/>
<path d="M1039 841 l-29 -29 0 -375 0 -374 26 -27 c35 -35 86 -35 119 -1 14
13 25 34 26 47 4 107 0 711 -5 732 -7 27 -51 56 -86 56 -12 0 -35 -13 -51 -29z"/>
</g>
</svg>
